<svg xmlns="http://www.w3.org/2000/svg" width="224.88" viewBox="0 0 224.88 225" height="225" version="1.0"><defs><clipPath id="a"><path d="M 5.371094 19.484375 L 34 19.484375 L 34 132 L 5.371094 132 Z M 5.371094 19.484375"/></clipPath><clipPath id="b"><path d="M 191 89 L 219.757812 89 L 219.757812 169 L 191 169 Z M 191 89"/></clipPath><clipPath id="c"><path d="M 191 24 L 219.757812 24 L 219.757812 76 L 191 76 Z M 191 24"/></clipPath><clipPath id="d"><path d="M 135 19.484375 L 164 19.484375 L 164 132 L 135 132 Z M 135 19.484375"/></clipPath><clipPath id="e"><path d="M 5.371094 19.484375 L 85 19.484375 L 85 104 L 5.371094 104 Z M 5.371094 19.484375"/></clipPath><clipPath id="f"><path d="M 84 19.484375 L 164 19.484375 L 164 104 L 84 104 Z M 84 19.484375"/></clipPath><clipPath id="g"><path d="M 140 121 L 219.757812 121 L 219.757812 205.386719 L 140 205.386719 Z M 140 121"/></clipPath></defs><g clip-path="url(#a)"><path fill="#122239" d="M 5.476562 19.484375 L 33.414062 38.074219 L 33.414062 131.027344 L 5.476562 112.4375 Z M 5.476562 19.484375"/></g><g clip-path="url(#b)"><path fill="#122239" d="M 219.65625 89.199219 L 191.71875 107.789062 L 191.71875 168.207031 L 219.65625 149.617188 Z M 219.65625 89.199219"/></g><g clip-path="url(#c)"><path fill="#122239" d="M 219.65625 24.132812 L 191.71875 42.722656 L 191.71875 75.253906 L 219.65625 56.664062 Z M 219.65625 24.132812"/></g><g clip-path="url(#d)"><path fill="#122239" d="M 163.78125 19.484375 L 135.84375 38.074219 L 135.84375 131.027344 L 163.78125 112.4375 Z M 163.78125 19.484375"/></g><g clip-path="url(#e)"><path fill="#122239" d="M 5.476562 52.019531 L 84.628906 103.140625 L 84.628906 70.609375 L 5.476562 19.484375 Z M 5.476562 52.019531"/></g><g clip-path="url(#f)"><path fill="#122239" d="M 163.78125 52.019531 L 84.628906 103.140625 L 84.628906 70.609375 L 163.78125 19.484375 Z M 163.78125 52.019531"/></g><path fill="#122239" d="M 163.78125 117.082031 L 84.628906 168.207031 L 84.628906 135.671875 L 163.78125 84.550781 Z M 163.78125 117.082031"/><g clip-path="url(#g)"><path fill="#122239" d="M 219.65625 154.261719 L 140.5 205.386719 L 140.5 172.851562 L 219.65625 121.730469 Z M 219.65625 154.261719"/></g><path fill="#122239" d="M 140.5 171.761719 L 84.628906 135.671875 L 84.628906 168.207031 L 140.5 204.292969 Z M 140.5 171.761719"/></svg>