<svg xmlns="http://www.w3.org/2000/svg" width="224.88" viewBox="0 0 224.88 225" height="225" version="1.0"><defs><clipPath id="a"><path d="M 20 8.402344 L 204 8.402344 L 204 216.789062 L 20 216.789062 Z M 20 8.402344"/></clipPath></defs><g clip-path="url(#a)"><path fill="#122239" d="M 48.328125 53.707031 C 39.578125 48.570312 28.398438 51.609375 23.347656 60.5 C 22.488281 62.035156 21.835938 63.695312 21.4375 65.414062 C 19.078125 75.40625 25.117188 85.453125 34.925781 87.851562 L 34.917969 137.332031 C 31.523438 138.175781 28.425781 139.992188 26.011719 142.570312 C 19.050781 149.992188 19.320312 161.757812 26.609375 168.84375 C 33.910156 175.9375 45.472656 175.652344 52.433594 168.234375 L 94.5625 192.957031 C 94.058594 194.683594 93.804688 196.464844 93.804688 198.242188 C 93.816406 208.5 101.992188 216.800781 112.070312 216.789062 C 114.015625 216.789062 115.933594 216.46875 117.789062 215.851562 C 127.375 212.632812 132.582031 202.117188 129.40625 192.355469 L 171.261719 167.765625 C 172.554688 169.242188 174.082031 170.511719 175.75 171.492188 C 184.507812 176.632812 195.679688 173.585938 200.730469 164.703125 C 201.625 163.128906 202.300781 161.429688 202.710938 159.65625 C 205.046875 149.707031 199.003906 139.722656 189.230469 137.351562 L 189.230469 87.867188 C 190.914062 87.449219 192.511719 86.800781 193.996094 85.929688 C 202.769531 80.816406 205.816406 69.433594 200.785156 60.507812 C 199.90625 58.980469 198.832031 57.582031 197.5625 56.367188 C 190.238281 49.28125 178.648438 49.574219 171.6875 57.035156 L 129.570312 32.289062 C 130.074219 30.558594 130.34375 28.746094 130.332031 26.929688 C 130.324219 16.683594 122.148438 8.394531 112.070312 8.402344 C 110.308594 8.402344 108.546875 8.652344 106.863281 9.164062 C 97.21875 12.074219 91.695312 22.398438 94.5625 32.234375 L 52.417969 56.980469 C 51.21875 55.6875 49.839844 54.585938 48.328125 53.707031 Z M 125.578125 185.714844 C 122.226562 181.988281 117.417969 179.652344 112.070312 179.652344 C 106.894531 179.652344 102.234375 181.816406 98.925781 185.324219 L 56.773438 160.558594 L 56.957031 159.839844 L 167.179688 159.839844 C 167.277344 160.257812 167.382812 160.664062 167.503906 161.074219 Z M 125.175781 39.902344 L 167.390625 64.71875 C 167.328125 64.917969 167.277344 65.136719 167.226562 65.34375 C 164.804688 75.292969 170.75 85.359375 180.523438 87.816406 L 180.523438 137.367188 C 180.296875 137.429688 180.046875 137.488281 179.820312 137.566406 L 124.683594 40.40625 C 124.863281 40.242188 125.019531 40.085938 125.175781 39.902344 Z M 106.992188 44.816406 C 110.308594 45.789062 113.832031 45.789062 117.164062 44.816406 L 172.3125 141.945312 C 169.785156 144.402344 167.996094 147.554688 167.164062 151.007812 L 56.984375 151.007812 C 56.148438 147.570312 54.371094 144.425781 51.863281 141.96875 Z M 56.722656 64.65625 L 98.9375 39.894531 L 99.449219 40.414062 L 44.328125 137.566406 L 43.605469 137.367188 L 43.605469 87.804688 C 43.824219 87.746094 44.03125 87.695312 44.257812 87.625 C 53.9375 84.785156 59.519531 74.511719 56.722656 64.65625 Z M 56.722656 64.65625"/></g></svg>