<svg xmlns="http://www.w3.org/2000/svg" width="224.88" viewBox="0 0 224.88 225" height="225" version="1.0"><defs><clipPath id="a"><path d="M 22.121094 9.867188 L 202.773438 9.867188 L 202.773438 215.257812 L 22.121094 215.257812 Z M 22.121094 9.867188"/></clipPath><clipPath id="b"><path d="M 139 34 L 202.773438 34 L 202.773438 215.257812 L 139 215.257812 Z M 139 34"/></clipPath></defs><g clip-path="url(#a)"><path fill="#122239" d="M 180.304688 49.839844 C 180.160156 48.808594 179.257812 48.238281 178.515625 48.175781 C 177.765625 48.113281 161.984375 46.941406 161.984375 46.941406 C 161.984375 46.941406 151.03125 36.058594 149.832031 34.851562 C 148.625 33.648438 146.277344 34.015625 145.367188 34.285156 C 145.222656 34.324219 142.96875 35.019531 139.230469 36.175781 C 135.570312 25.640625 129.113281 15.953125 117.742188 15.953125 C 117.429688 15.953125 117.105469 15.96875 116.78125 15.984375 C 113.550781 11.707031 109.542969 9.851562 106.089844 9.851562 C 79.613281 9.851562 66.964844 42.964844 63 59.792969 C 52.710938 62.980469 45.402344 65.25 44.46875 65.542969 C 38.726562 67.34375 38.542969 67.523438 37.792969 72.9375 C 37.222656 77.039062 22.199219 193.296875 22.199219 193.296875 L 139.273438 215.242188 L 202.714844 201.511719 C 202.714844 201.511719 180.441406 50.871094 180.300781 49.839844 Z M 132.757812 38.179688 C 129.820312 39.089844 126.476562 40.125 122.851562 41.25 C 122.859375 40.550781 122.859375 39.863281 122.859375 39.109375 C 122.859375 32.5625 121.945312 27.289062 120.492188 23.105469 C 126.347656 23.84375 130.25 30.507812 132.757812 38.179688 Z M 113.226562 24.40625 C 114.859375 28.488281 115.910156 34.34375 115.910156 42.25 C 115.910156 42.652344 115.910156 43.023438 115.902344 43.398438 C 109.464844 45.394531 102.464844 47.5625 95.445312 49.738281 C 99.390625 34.523438 106.773438 27.175781 113.226562 24.40625 Z M 105.359375 16.957031 C 106.503906 16.957031 107.65625 17.34375 108.757812 18.101562 C 100.273438 22.097656 91.175781 32.15625 87.335938 52.25 C 81.722656 53.988281 76.234375 55.6875 71.164062 57.261719 C 75.660156 41.9375 86.34375 16.957031 105.359375 16.957031 Z M 105.359375 16.957031"/></g><g clip-path="url(#b)"><path fill="#122239" d="M 178.515625 48.175781 C 177.765625 48.113281 161.984375 46.941406 161.984375 46.941406 C 161.984375 46.941406 151.03125 36.058594 149.832031 34.851562 C 149.378906 34.40625 148.773438 34.175781 148.136719 34.074219 L 139.28125 215.242188 L 202.71875 201.511719 C 202.71875 201.511719 180.445312 50.875 180.304688 49.84375 C 180.160156 48.808594 179.257812 48.238281 178.515625 48.175781"/></g><path fill="#FFF" d="M 117.742188 83.246094 L 109.917969 106.523438 C 109.917969 106.523438 103.0625 102.859375 94.667969 102.859375 C 82.351562 102.859375 81.730469 110.59375 81.730469 112.546875 C 81.730469 123.179688 109.429688 127.253906 109.429688 152.152344 C 109.429688 171.746094 97.015625 184.367188 80.261719 184.367188 C 60.164062 184.367188 49.886719 171.851562 49.886719 171.851562 L 55.269531 154.0625 C 55.269531 154.0625 65.832031 163.140625 74.75 163.140625 C 80.574219 163.140625 82.941406 158.554688 82.941406 155.195312 C 82.941406 141.328125 60.214844 140.707031 60.214844 117.921875 C 60.214844 98.738281 73.976562 80.179688 101.75 80.179688 C 112.457031 80.179688 117.742188 83.246094 117.742188 83.246094"/></svg>