<svg xmlns="http://www.w3.org/2000/svg" width="224.88" viewBox="0 0 224.88 225" height="225" version="1.0"><defs><clipPath id="a"><path d="M 7.601562 49.269531 L 218.988281 49.269531 L 218.988281 176.699219 L 7.601562 176.699219 Z M 7.601562 49.269531"/></clipPath></defs><g clip-path="url(#a)"><path fill="#122239" d="M 57.5 82.503906 L 97.355469 82.503906 L 97.355469 85.667969 L 61.152344 85.667969 L 61.152344 109.5 L 95.195312 109.5 L 95.195312 112.667969 L 61.152344 112.667969 L 61.152344 138.832031 L 97.769531 138.832031 L 97.769531 142 L 57.5 142 Z M 100.925781 82.503906 L 105.160156 82.503906 L 123.925781 108.664062 L 143.105469 82.503906 L 169.191406 49.269531 L 126.332031 111.417969 L 148.417969 142 L 144.015625 142 L 123.925781 114.164062 L 103.75 142 L 99.429688 142 L 121.679688 111.417969 Z M 149.996094 85.667969 L 149.996094 82.503906 L 195.414062 82.503906 L 195.414062 85.667969 L 174.492188 85.667969 L 174.492188 141.996094 L 170.839844 141.996094 L 170.839844 85.667969 Z M 7.640625 82.503906 L 12.207031 82.503906 L 75.179688 176.691406 L 49.15625 142 L 11.460938 87.003906 L 11.296875 142 L 7.644531 142 L 7.644531 82.503906 Z M 195.042969 137.878906 C 194.300781 137.878906 193.738281 137.296875 193.738281 136.550781 C 193.738281 135.800781 194.300781 135.226562 195.042969 135.226562 C 195.796875 135.226562 196.351562 135.800781 196.351562 136.550781 C 196.351562 137.296875 195.796875 137.878906 195.042969 137.878906 Z M 198.632812 134.386719 L 200.589844 134.386719 C 200.613281 135.449219 201.390625 136.15625 202.527344 136.15625 C 203.796875 136.15625 204.515625 135.394531 204.515625 133.960938 L 204.515625 124.890625 L 206.507812 124.890625 L 206.507812 133.972656 C 206.507812 136.550781 205.015625 138.035156 202.546875 138.035156 C 200.226562 138.035156 198.632812 136.59375 198.632812 134.386719 Z M 209.113281 134.273438 L 211.085938 134.273438 C 211.25 135.492188 212.441406 136.265625 214.160156 136.265625 C 215.757812 136.265625 216.929688 135.441406 216.929688 134.300781 C 216.929688 133.324219 216.183594 132.734375 214.484375 132.332031 L 212.835938 131.933594 C 210.515625 131.390625 209.460938 130.269531 209.460938 128.386719 C 209.460938 126.101562 211.324219 124.582031 214.121094 124.582031 C 216.726562 124.582031 218.625 126.101562 218.742188 128.261719 L 216.804688 128.261719 C 216.621094 127.078125 215.589844 126.339844 214.09375 126.339844 C 212.523438 126.339844 211.472656 127.097656 211.472656 128.253906 C 211.472656 129.167969 212.148438 129.691406 213.820312 130.085938 L 215.234375 130.429688 C 217.863281 131.046875 218.949219 132.113281 218.949219 134.039062 C 218.949219 136.496094 217.042969 138.035156 214.007812 138.035156 C 211.164062 138.035156 209.253906 136.570312 209.113281 134.273438 Z M 209.113281 134.273438"/></g></svg>