<svg xmlns="http://www.w3.org/2000/svg" width="224.88" viewBox="0 0 224.88 225" height="225" version="1.0"><defs><clipPath id="a"><path d="M 13 11 L 216.484375 11 L 216.484375 214 L 13 214 Z M 13 11"/></clipPath></defs><g clip-path="url(#a)"><path fill="#122239" d="M 137.210938 11.183594 C 136.726562 11.257812 136.238281 11.402344 135.773438 11.617188 C 131.820312 13.578125 127.328125 19.40625 126.464844 20.554688 C 126.410156 20.628906 126.355469 20.699219 126.320312 20.773438 C 121.882812 27.425781 119.511719 35.214844 119.421875 43.328125 C 119.367188 49.40625 120.550781 55.433594 122.960938 61.242188 C 128.566406 74.714844 140.210938 85.863281 154.066406 91.082031 C 154.53125 91.242188 154.980469 91.40625 155.789062 91.691406 C 155.863281 91.730469 156.546875 91.945312 156.652344 91.960938 L 157.15625 92.140625 C 157.875 92.375 158.613281 92.609375 159.332031 92.753906 C 162.980469 93.492188 166.535156 93.90625 169.878906 94.011719 C 170.453125 94.011719 171.027344 94.03125 171.605469 94.03125 C 196.816406 94.03125 206.589844 76.222656 209.84375 70.289062 C 210.167969 69.714844 210.398438 69.246094 210.617188 68.957031 C 210.617188 68.941406 210.617188 68.941406 210.632812 68.921875 C 212.054688 66.816406 211.515625 63.957031 209.410156 62.519531 C 207.328125 61.097656 204.46875 61.636719 203.03125 63.742188 C 203.03125 63.742188 203.015625 63.742188 203.015625 63.742188 C 196.292969 73.652344 184.792969 76.65625 168.855469 72.699219 C 167.667969 72.410156 166.375 71.960938 165.226562 71.53125 C 163.714844 70.992188 162.207031 70.359375 160.804688 69.675781 C 158.019531 68.292969 155.394531 66.636719 153.023438 64.804688 C 139.007812 53.921875 133.527344 31.277344 141.71875 18.199219 C 142.816406 16.457031 142.617188 14.1875 141.234375 12.660156 C 140.191406 11.507812 138.683594 10.988281 137.210938 11.183594 Z M 96.457031 20.359375 C 95.414062 20.339844 94.351562 20.683594 93.492188 21.402344 C 86.535156 27.066406 79.421875 36.347656 79.113281 36.726562 C 79.078125 36.796875 79.042969 36.851562 78.988281 36.925781 C 66.410156 55.253906 65.457031 81.332031 76.582031 103.367188 C 78.324219 106.855469 80.300781 110.183594 82.402344 113.242188 L 83.03125 114.140625 C 84.8125 116.746094 86.804688 119.699219 89.359375 122 C 90.238281 123.007812 91.191406 123.976562 92.125 124.914062 L 92.574219 125.382812 L 92.953125 125.757812 C 93.902344 126.675781 94.875 127.613281 95.878906 128.511719 C 95.878906 128.511719 95.898438 128.511719 95.898438 128.511719 C 95.96875 128.617188 96.078125 128.691406 96.167969 128.78125 C 97.300781 129.789062 98.449219 130.742188 99.976562 131.945312 L 100.390625 132.253906 C 101.578125 133.207031 102.78125 134.105469 104.019531 134.984375 C 104.144531 135.078125 104.273438 135.167969 104.398438 135.257812 C 104.828125 135.542969 105.261719 135.8125 105.691406 136.121094 L 106.121094 136.40625 L 106.625 136.730469 C 107.542969 137.34375 108.441406 137.898438 109.71875 138.636719 C 110.542969 139.140625 111.425781 139.644531 112 139.933594 C 112.25 140.078125 112.519531 140.21875 113.148438 140.5625 L 114.550781 141.300781 C 114.621094 141.335938 114.945312 141.480469 115.019531 141.515625 C 115.933594 141.984375 116.886719 142.433594 117.839844 142.863281 L 119.292969 143.511719 C 120.246094 143.925781 121.21875 144.320312 122.402344 144.769531 L 122.941406 144.96875 C 122.976562 145.003906 123.425781 145.167969 123.464844 145.183594 C 124.324219 145.492188 125.207031 145.796875 126.085938 146.082031 L 128.101562 146.75 C 129.105469 147.089844 130.273438 147.488281 131.550781 147.703125 C 137.820312 148.746094 143.914062 149.285156 149.679688 149.285156 C 150.363281 149.285156 151.046875 149.265625 151.710938 149.265625 C 202.492188 148.152344 215.699219 104.964844 215.828125 104.535156 C 216.457031 102.359375 215.429688 100.039062 213.382812 99.066406 C 211.335938 98.097656 208.890625 98.78125 207.613281 100.648438 C 194.75 119.464844 170.417969 127.414062 145.636719 120.867188 C 144.488281 120.578125 143.375 120.253906 141.988281 119.804688 C 141.757812 119.734375 141.558594 119.660156 141.179688 119.519531 C 140.371094 119.265625 139.582031 118.996094 138.683594 118.65625 L 137.40625 118.167969 C 136.671875 117.882812 135.933594 117.59375 135.035156 117.199219 L 134.441406 116.929688 C 133.347656 116.460938 132.285156 115.9375 131.335938 115.472656 L 128.710938 114.105469 C 128.117188 113.816406 127.597656 113.492188 126.789062 113.007812 L 126.339844 112.753906 L 125.890625 112.484375 C 125.226562 112.089844 124.558594 111.675781 123.949219 111.242188 L 123.515625 110.972656 C 123.480469 110.957031 123.121094 110.703125 123.085938 110.667969 C 122.546875 110.328125 122.027344 109.984375 121.523438 109.660156 C 120.410156 108.871094 119.3125 108.042969 118.035156 107.035156 L 117.535156 106.621094 C 105.671875 97.144531 96.90625 84.480469 92.789062 70.898438 C 88.960938 58.4375 91.800781 42.121094 100.390625 27.265625 C 101.503906 25.339844 101.089844 22.894531 99.382812 21.457031 C 98.539062 20.734375 97.496094 20.359375 96.457031 20.359375 Z M 45.835938 34.171875 C 44.738281 34.171875 43.625 34.566406 42.746094 35.359375 C 33.957031 43.253906 27.378906 53.488281 26.660156 54.660156 C 7.867188 82.050781 11.496094 124.625 24.398438 150.652344 C 24.648438 151.191406 24.917969 151.714844 25.1875 152.234375 L 25.367188 152.523438 C 25.601562 153.042969 25.871094 153.585938 25.960938 153.691406 C 26.105469 154.035156 26.320312 154.410156 26.410156 154.519531 C 26.625 154.96875 26.839844 155.363281 27.238281 156.046875 L 28.710938 158.585938 C 28.925781 158.925781 29.140625 159.285156 29.214844 159.410156 C 29.5 159.878906 29.804688 160.363281 30.113281 160.851562 L 30.832031 162 C 31.046875 162.34375 31.261719 162.648438 31.40625 162.828125 C 32.125 163.945312 32.84375 165.058594 33.632812 166.121094 C 33.671875 166.175781 33.707031 166.210938 33.742188 166.246094 L 34.03125 166.640625 C 34.675781 167.578125 35.339844 168.476562 35.933594 169.214844 L 38.558594 172.542969 C 38.59375 172.578125 38.882812 172.917969 38.898438 172.957031 L 39.277344 173.386719 C 40.066406 174.359375 40.910156 175.328125 41.757812 176.265625 C 41.882812 176.410156 42.007812 176.535156 42.132812 176.679688 C 42.941406 177.558594 43.769531 178.441406 44.632812 179.359375 L 45.457031 180.148438 C 46.140625 180.871094 46.824219 181.570312 47.542969 182.238281 C 47.542969 182.253906 47.882812 182.578125 47.882812 182.578125 L 48.601562 183.242188 C 49.464844 184.070312 50.363281 184.898438 51.046875 185.472656 C 51.082031 185.527344 51.730469 186.085938 51.785156 186.121094 C 52.628906 186.878906 53.472656 187.597656 54.335938 188.296875 L 58.738281 191.789062 C 59.472656 192.328125 60.230469 192.867188 61.089844 193.496094 C 61.378906 193.710938 61.683594 193.929688 61.988281 194.125 C 62.117188 194.234375 62.257812 194.339844 62.347656 194.394531 L 65.65625 196.609375 C 66.859375 197.398438 68.0625 198.136719 69.539062 199.019531 L 70.328125 199.46875 C 71.246094 200.007812 72.179688 200.546875 73.058594 201.015625 C 73.582031 201.300781 74.101562 201.554688 74.550781 201.789062 C 75.179688 202.128906 75.863281 202.507812 76.90625 203.011719 C 76.996094 203.066406 77.730469 203.425781 77.820312 203.460938 C 78.863281 203.980469 79.921875 204.46875 81.253906 205.0625 C 81.253906 205.078125 81.683594 205.277344 81.683594 205.277344 C 82.90625 205.800781 84.09375 206.300781 85.65625 206.933594 C 85.90625 207.039062 86.160156 207.128906 86.210938 207.148438 C 87.328125 207.578125 88.496094 208.011719 89.449219 208.351562 C 89.539062 208.390625 90.023438 208.585938 90.113281 208.621094 C 91.386719 209.054688 92.644531 209.46875 94.261719 209.972656 C 94.53125 210.0625 94.820312 210.152344 94.855469 210.152344 L 95.773438 210.441406 C 96.886719 210.78125 98 211.140625 99.203125 211.375 C 107.757812 212.941406 116.113281 213.75 124.019531 213.75 L 124.039062 213.75 C 189.933594 213.75 210.921875 160.671875 211.136719 160.132812 C 211.945312 157.992188 211.066406 155.582031 209.050781 154.464844 C 207.074219 153.367188 204.558594 153.890625 203.160156 155.707031 C 186.25 177.992188 154.351562 186.265625 117.839844 177.867188 C 116.957031 177.648438 116.058594 177.398438 115.179688 177.128906 L 113.453125 176.605469 C 112.285156 176.246094 111.117188 175.851562 109.988281 175.457031 C 109.96875 175.457031 109.449219 175.257812 109.449219 175.257812 C 108.441406 174.917969 107.433594 174.519531 106.554688 174.179688 L 105.546875 173.78125 C 104.433594 173.332031 103.320312 172.867188 102.242188 172.378906 L 101.613281 172.109375 C 100.640625 171.660156 99.707031 171.230469 98.773438 170.761719 C 98.703125 170.726562 97.964844 170.367188 97.894531 170.347656 C 97.246094 170.023438 96.597656 169.683594 95.773438 169.234375 L 92.015625 167.21875 C 91.640625 166.964844 91.246094 166.730469 90.867188 166.535156 C 89.734375 165.832031 88.566406 165.132812 87.417969 164.394531 C 87.148438 164.230469 86.914062 164.050781 86.464844 163.746094 C 85.671875 163.242188 84.902344 162.722656 83.769531 161.929688 L 83.320312 161.605469 C 82.546875 161.066406 81.792969 160.492188 81.164062 160.023438 C 80.769531 159.734375 80.371094 159.410156 79.726562 158.925781 C 79.152344 158.476562 78.574219 158.042969 78.035156 157.613281 L 77.03125 156.785156 C 76.1875 156.101562 75.394531 155.382812 74.570312 154.679688 C 74.460938 154.574219 74.371094 154.5 74.246094 154.410156 C 73.328125 153.566406 72.394531 152.722656 71.28125 151.660156 L 68.027344 148.421875 C 67.238281 147.613281 66.445312 146.785156 65.546875 145.796875 C 64.722656 144.878906 63.929688 143.960938 62.871094 142.703125 L 60.929688 140.328125 C 60.695312 139.988281 60.445312 139.644531 60.140625 139.285156 C 59.472656 138.386719 58.808594 137.503906 58.144531 136.570312 C 40.246094 111.890625 35.574219 60.378906 49.519531 41.511719 C 50.921875 39.621094 50.667969 36.960938 48.90625 35.359375 C 48.046875 34.566406 46.929688 34.171875 45.835938 34.171875 Z M 45.835938 34.171875"/></g></svg>