<svg xmlns="http://www.w3.org/2000/svg" width="568.5" viewBox="0 0 568.5 820.5" height="820.5" version="1.0"><defs><clipPath id="a"><path d="M 137 336 L 541 336 L 541 819.890625 L 137 819.890625 Z M 137 336"/></clipPath><clipPath id="b"><path d="M 379 365 L 559.589844 365 L 559.589844 659 L 379 659 Z M 379 365"/></clipPath></defs><path fill="#43200C" d="M 226.550781 336.285156 C 226.550781 370.402344 351.996094 429.375 382.804688 429.375 C 413.613281 429.375 475.5625 384.703125 475.5625 350.578125 C 475.5625 316.464844 413.613281 305.820312 382.804688 305.820312 C 351.996094 305.820312 226.550781 302.164062 226.550781 336.285156"/><path fill="#F6693B" d="M 386.960938 349.429688 L 338.632812 377.152344 L 281.480469 354.371094 L 285.816406 292.140625 L 386.40625 270.367188 L 386.960938 349.429688"/><path fill="#FC8B59" d="M 387.203125 263.394531 C 392.527344 242.660156 407.972656 211.90625 404.113281 195.644531 C 399.640625 176.726562 381.5625 169.019531 365.613281 163.613281 C 349.65625 158.214844 330.613281 153.363281 315.574219 165.675781 C 302.660156 176.253906 296.246094 210.070312 287.871094 229.769531 C 277.167969 254.957031 279.242188 279.148438 286.644531 297.273438 C 290.632812 303.886719 296.460938 307.421875 303.726562 310.011719 C 310.574219 313.824219 341.84375 312.960938 349.039062 310.132812 C 373.390625 300.527344 380.425781 289.910156 387.203125 263.394531"/><path fill="#43200C" d="M 444.367188 207.320312 C 453.929688 187.414062 429.730469 170.546875 425.117188 162.566406 C 408.394531 133.605469 377.304688 141.089844 369.273438 133.746094 C 335.574219 102.910156 318.589844 125.644531 318.792969 132.226562 C 319.007812 138.453125 320.144531 138.59375 320.359375 141.886719 C 302.75 142.121094 293.214844 148.53125 297.582031 153.148438 C 299.738281 155.425781 279.761719 179.070312 300.59375 192.769531 C 300.59375 192.769531 320.132812 165.910156 327.007812 165.878906 C 335.773438 161.546875 344.859375 173.574219 344.859375 173.574219 C 344.859375 173.574219 367.199219 181.300781 368.628906 182.601562 C 371.234375 184.972656 380.214844 182.09375 380.214844 182.09375 C 404.527344 203.230469 390.96875 249.5 390.96875 249.5 C 390.96875 249.5 382.488281 283.066406 380.054688 315.300781 C 385.476562 306.492188 413.6875 286.753906 423.789062 273.445312 C 441.734375 249.746094 434.070312 228.722656 444.367188 207.320312"/><path fill="#FC8B59" d="M 390.96875 249.5 C 416.300781 238.222656 401.425781 273.476562 394.449219 280.5625 C 391.898438 283.175781 383.472656 285.371094 379.375 284.785156 L 390.96875 249.5"/><path fill="#8E6C8F" d="M 152.96875 392.15625 C 152.96875 392.15625 72.246094 540.46875 19.046875 606.882812 C 15.710938 631.152344 69.632812 687.679688 69.632812 687.679688 L 167.269531 595.8125 L 152.96875 392.15625"/><g clip-path="url(#a)"><path fill="#43200C" d="M 488.609375 567.664062 C 488.609375 567.664062 540.550781 412.796875 540.601562 392.15625 C 525.257812 354.90625 420.082031 336.285156 420.082031 336.285156 L 322 346.398438 L 226.550781 336.285156 C 226.550781 336.285156 168.308594 364.5625 152.96875 392.15625 C 153.007812 412.796875 155.390625 567.664062 155.390625 567.664062 C 155.390625 567.664062 117.226562 788.738281 152.121094 857.328125 C 176.917969 871.960938 237.371094 887.621094 298.851562 887.875 C 360.324219 887.621094 464.789062 862.894531 489.59375 848.253906 C 545.671875 831.621094 488.609375 567.664062 488.609375 567.664062"/></g><path fill="#8E6C8F" d="M 505.671875 634.75 C 488.367188 690.648438 466.441406 737.023438 447.472656 749.820312 C 410.285156 774.921875 147.957031 697.15625 147.957031 697.15625 L 218.265625 681.402344 L 366.460938 632.578125 C 366.460938 632.578125 373.613281 613.417969 384.792969 585.617188 C 414.945312 510.589844 538.613281 528.359375 505.671875 634.75"/><path fill="#F6693B" d="M 123.277344 628.433594 C 113.484375 627.261719 111.09375 630.167969 104.191406 637.761719 C 93.601562 636.175781 105.855469 616.945312 114.035156 613.410156 C 120.589844 610.601562 110.171875 618.921875 98.878906 624.1875 C 95.183594 622.363281 91.839844 615.445312 103.050781 608.261719 C 88.902344 606.414062 111.386719 589.332031 114.808594 586.117188 C 111.519531 584.242188 110.71875 582.09375 109.875 578.601562 C 118.921875 573.574219 138.09375 574.800781 148.554688 575.726562 C 160.03125 576.738281 156.972656 578.46875 166.875 584.339844 C 176.191406 589.878906 187.761719 593.128906 193.175781 602.617188 C 198.175781 611.363281 209.941406 622.488281 213.503906 632.039062 C 216.210938 639.3125 133.046875 629.613281 123.277344 628.433594"/><path fill="#FC8B59" d="M 378.203125 602.160156 L 366.460938 632.578125 L 261.960938 670.265625 L 255.960938 607.3125 L 326.601562 585.726562 L 378.203125 602.160156"/><path fill="#8E6C8F" d="M 261.960938 670.265625 C 261.960938 670.265625 70.734375 721.96875 50.027344 704.242188 C 30.628906 687.617188 5.28125 628.386719 19.046875 606.882812 C 26.222656 595.675781 57.382812 595.476562 70.53125 593.472656 C 120.285156 585.878906 255.960938 607.3125 255.960938 607.3125 L 261.960938 670.265625"/><path fill="#7A5D7B" d="M 413.945312 648.515625 L 364.015625 647.132812 L 150.800781 696.589844 L 368.644531 632.578125 L 413.945312 648.515625"/><g clip-path="url(#b)"><path fill="#8E6C8F" d="M 556.367188 503.9375 C 556.367188 503.9375 504.066406 639.832031 500.027344 652.140625 C 489.851562 683.191406 379.214844 595.269531 379.214844 595.269531 L 418.132812 481.386719 C 418.132812 481.386719 478.191406 358.433594 510.023438 365.453125 C 577.800781 380.40625 556.367188 503.9375 556.367188 503.9375"/></g><path fill="#8E6C8F" d="M 268.070312 466.457031 L 278 466.457031 L 278 365.441406 L 268.070312 365.441406 L 268.070312 466.457031"/><path fill="#8E6C8F" d="M 349.191406 472.253906 L 359.121094 472.253906 L 359.121094 371.234375 L 349.191406 371.234375 L 349.191406 472.253906"/></svg>