<svg xmlns="http://www.w3.org/2000/svg" width="454.5" viewBox="0 0 454.5 656.25" height="656.25" version="1.0"><defs><clipPath id="a"><path d="M 125 320 L 405 320 L 405 655.5 L 125 655.5 Z M 125 320"/></clipPath><clipPath id="b"><path d="M 292.410156 340.210938 L 417.804688 340.210938 L 417.804688 544.871094 L 292.410156 544.871094 Z M 292.410156 340.210938"/></clipPath></defs><path fill="#43200C" d="M 187.25 320.839844 C 187.25 344.464844 274.09375 385.304688 295.421875 385.304688 C 316.75 385.304688 359.632812 354.367188 359.632812 330.738281 C 359.632812 307.113281 316.75 299.742188 295.421875 299.742188 C 274.09375 299.742188 187.25 297.210938 187.25 320.839844"/><path fill="#F6693B" d="M 298.296875 329.941406 L 264.839844 349.140625 L 225.277344 333.363281 L 228.277344 290.269531 L 297.914062 275.191406 L 298.296875 329.941406"/><path fill="#FC8B59" d="M 298.464844 270.363281 C 302.152344 256.003906 312.84375 234.707031 310.171875 223.445312 C 307.074219 210.34375 294.5625 205.007812 283.519531 201.261719 C 272.472656 197.523438 259.289062 194.164062 248.878906 202.691406 C 239.9375 210.015625 235.496094 233.433594 229.699219 247.078125 C 222.289062 264.519531 223.726562 281.273438 228.851562 293.824219 C 231.609375 298.402344 235.644531 300.851562 240.675781 302.644531 C 245.417969 305.285156 267.0625 304.6875 272.046875 302.730469 C 288.902344 296.078125 293.773438 288.722656 298.464844 270.363281"/><path fill="#43200C" d="M 338.039062 231.53125 C 344.660156 217.746094 327.90625 206.066406 324.714844 200.539062 C 313.136719 180.484375 291.613281 185.667969 286.050781 180.582031 C 262.722656 159.226562 250.964844 174.96875 251.105469 179.53125 C 251.253906 183.839844 252.042969 183.9375 252.191406 186.21875 C 240 186.378906 233.398438 190.820312 236.421875 194.015625 C 237.914062 195.59375 224.085938 211.96875 238.507812 221.453125 C 238.507812 221.453125 252.035156 202.855469 256.792969 202.832031 C 262.859375 199.832031 269.152344 208.164062 269.152344 208.164062 C 269.152344 208.164062 284.617188 213.515625 285.605469 214.414062 C 287.410156 216.054688 293.628906 214.0625 293.628906 214.0625 C 310.457031 228.699219 301.070312 260.738281 301.070312 260.738281 C 301.070312 260.738281 295.203125 283.984375 293.515625 306.308594 C 297.269531 300.207031 316.800781 286.539062 323.792969 277.324219 C 336.214844 260.910156 330.910156 246.351562 338.039062 231.53125"/><path fill="#FC8B59" d="M 301.070312 260.738281 C 318.609375 252.933594 308.3125 277.34375 303.484375 282.253906 C 301.714844 284.058594 295.882812 285.578125 293.046875 285.175781 L 301.070312 260.738281"/><path fill="#8E6C8F" d="M 136.308594 359.53125 C 136.308594 359.53125 80.425781 462.238281 43.597656 508.226562 C 41.289062 525.035156 78.617188 564.179688 78.617188 564.179688 L 146.210938 500.5625 L 136.308594 359.53125"/><g clip-path="url(#a)"><path fill="#43200C" d="M 368.667969 481.066406 C 368.667969 481.066406 404.625 373.824219 404.660156 359.53125 C 394.039062 333.734375 321.226562 320.839844 321.226562 320.839844 L 253.328125 327.84375 L 187.25 320.839844 C 187.25 320.839844 146.929688 340.421875 136.308594 359.53125 C 136.335938 373.824219 137.984375 481.066406 137.984375 481.066406 C 137.984375 481.066406 111.566406 634.164062 135.722656 681.664062 C 152.890625 691.796875 194.738281 702.640625 237.300781 702.816406 C 279.859375 702.640625 352.175781 685.515625 369.347656 675.378906 C 408.171875 663.859375 368.667969 481.066406 368.667969 481.066406"/></g><path fill="#8E6C8F" d="M 380.480469 527.527344 C 368.5 566.234375 353.320312 598.351562 340.1875 607.210938 C 314.445312 624.59375 132.839844 570.742188 132.839844 570.742188 L 181.511719 559.832031 L 284.105469 526.019531 C 284.105469 526.019531 289.058594 512.753906 296.796875 493.503906 C 317.667969 441.546875 403.28125 453.851562 380.480469 527.527344"/><path fill="#F6693B" d="M 115.753906 523.152344 C 108.972656 522.339844 107.320312 524.355469 102.542969 529.613281 C 95.210938 528.511719 103.695312 515.195312 109.355469 512.746094 C 113.894531 510.804688 106.683594 516.566406 98.863281 520.210938 C 96.304688 518.949219 93.992188 514.160156 101.75 509.183594 C 91.957031 507.902344 107.523438 496.074219 109.890625 493.847656 C 107.613281 492.546875 107.058594 491.0625 106.476562 488.644531 C 112.738281 485.164062 126.011719 486.011719 133.253906 486.652344 C 141.199219 487.351562 139.078125 488.550781 145.9375 492.617188 C 152.386719 496.453125 160.398438 498.703125 164.144531 505.273438 C 167.605469 511.332031 175.75 519.035156 178.214844 525.648438 C 180.089844 530.683594 122.515625 523.96875 115.753906 523.152344"/><path fill="#FC8B59" d="M 292.234375 504.957031 L 284.105469 526.019531 L 211.761719 552.121094 L 207.609375 508.527344 L 256.511719 493.578125 L 292.234375 504.957031"/><path fill="#8E6C8F" d="M 211.761719 552.121094 C 211.761719 552.121094 79.378906 587.925781 65.042969 575.648438 C 51.617188 564.136719 34.066406 523.117188 43.597656 508.226562 C 48.566406 500.46875 70.136719 500.332031 79.238281 498.941406 C 113.683594 493.683594 207.609375 508.527344 207.609375 508.527344 L 211.761719 552.121094"/><path fill="#7A5D7B" d="M 316.980469 537.058594 L 282.414062 536.101562 L 134.808594 570.351562 L 285.617188 526.019531 L 316.980469 537.058594"/><g clip-path="url(#b)"><path fill="#8E6C8F" d="M 415.574219 436.941406 C 415.574219 436.941406 379.367188 531.042969 376.570312 539.570312 C 369.527344 561.070312 292.933594 500.1875 292.933594 500.1875 L 319.875 421.320312 C 319.875 421.320312 361.457031 336.175781 383.492188 341.039062 C 430.414062 351.394531 415.574219 436.941406 415.574219 436.941406"/></g><path fill="#8E6C8F" d="M 215.992188 410.984375 L 222.863281 410.984375 L 222.863281 341.03125 L 215.992188 341.03125 L 215.992188 410.984375"/><path fill="#8E6C8F" d="M 272.148438 414.996094 L 279.023438 414.996094 L 279.023438 345.042969 L 272.148438 345.042969 L 272.148438 414.996094"/></svg>